<svg viewBox="0 0 330 200" xmlns="http://www.w3.org/2000/svg"><g><g><g><g><g><line x1="50" y1="177" x2="45" y2="177" style="visibility: inherit;" fill="rgb(0, 0, 0)" stroke="rgb(204, 204, 204)" stroke-width="1px"></line><line x1="50" y1="163.38461538461536" x2="45" y2="163.38461538461536" style="visibility: inherit;" fill="rgb(0, 0, 0)" stroke="rgb(204, 204, 204)" stroke-width="1px"></line><line x1="50" y1="149.76923076923072" x2="45" y2="149.76923076923072" style="visibility: inherit;" fill="rgb(0, 0, 0)" stroke="rgb(204, 204, 204)" stroke-width="1px"></line><line x1="50" y1="136.15384615384608" x2="45" y2="136.15384615384608" style="visibility: inherit;" fill="rgb(0, 0, 0)" stroke="rgb(204, 204, 204)" stroke-width="1px"></line><line x1="50" y1="122.53846153846146" x2="45" y2="122.53846153846146" style="visibility: inherit;" fill="rgb(0, 0, 0)" stroke="rgb(204, 204, 204)" stroke-width="1px"></line><line x1="50" y1="108.9230769230771" x2="45" y2="108.9230769230771" style="visibility: inherit;" fill="rgb(0, 0, 0)" stroke="rgb(204, 204, 204)" stroke-width="1px"></line><line x1="50" y1="95.30769230769216" x2="45" y2="95.30769230769216" style="visibility: inherit;" fill="rgb(0, 0, 0)" stroke="rgb(204, 204, 204)" stroke-width="1px"></line><line x1="50" y1="81.69230769230784" x2="45" y2="81.69230769230784" style="visibility: inherit;" fill="rgb(0, 0, 0)" stroke="rgb(204, 204, 204)" stroke-width="1px"></line><line x1="50" y1="68.0769230769229" x2="45" y2="68.0769230769229" style="visibility: inherit;" fill="rgb(0, 0, 0)" stroke="rgb(204, 204, 204)" stroke-width="1px"></line><line x1="50" y1="54.46153846153856" x2="45" y2="54.46153846153856" style="visibility: inherit;" fill="rgb(0, 0, 0)" stroke="rgb(204, 204, 204)" stroke-width="1px"></line><line x1="50" y1="40.84615384615362" x2="45" y2="40.84615384615362" style="visibility: inherit;" fill="rgb(0, 0, 0)" stroke="rgb(204, 204, 204)" stroke-width="1px"></line><line x1="50" y1="27.230769230769273" x2="45" y2="27.230769230769273" style="visibility: inherit;" fill="rgb(0, 0, 0)" stroke="rgb(204, 204, 204)" stroke-width="1px"></line><line x1="50" y1="13.61538461538433" x2="45" y2="13.61538461538433" style="visibility: inherit;" fill="rgb(0, 0, 0)" stroke="rgb(204, 204, 204)" stroke-width="1px"></line><line x1="50" y1="0" x2="45" y2="0" style="visibility: inherit;" fill="rgb(0, 0, 0)" stroke="rgb(204, 204, 204)" stroke-width="1px"></line></g><g transform="translate(40, 0)"><text x="0" y="177" dx="0em" dy="0.3em" style="text-anchor: end; visibility: hidden; font-family: Roboto, sans-serif; font-size: 12px; font-weight: 200;" fill="rgb(33, 33, 33)" stroke="none" stroke-width="1px">3.92</text><text x="0" y="163.38461538461536" dx="0em" dy="0.3em" style="text-anchor: end; visibility: inherit; font-family: Roboto, sans-serif; font-size: 12px; font-weight: 200;" fill="rgb(33, 33, 33)" stroke="none" stroke-width="1px">3.94</text><text x="0" y="149.76923076923072" dx="0em" dy="0.3em" style="text-anchor: end; visibility: hidden; font-family: Roboto, sans-serif; font-size: 12px; font-weight: 200;" fill="rgb(33, 33, 33)" stroke="none" stroke-width="1px">3.96</text><text x="0" y="136.15384615384608" dx="0em" dy="0.3em" style="text-anchor: end; visibility: inherit; font-family: Roboto, sans-serif; font-size: 12px; font-weight: 200;" fill="rgb(33, 33, 33)" stroke="none" stroke-width="1px">3.98</text><text x="0" y="122.53846153846146" dx="0em" dy="0.3em" style="text-anchor: end; visibility: hidden; font-family: Roboto, sans-serif; font-size: 12px; font-weight: 200;" fill="rgb(33, 33, 33)" stroke="none" stroke-width="1px">4</text><text x="0" y="108.9230769230771" dx="0em" dy="0.3em" style="text-anchor: end; visibility: inherit; font-family: Roboto, sans-serif; font-size: 12px; font-weight: 200;" fill="rgb(33, 33, 33)" stroke="none" stroke-width="1px">4.02</text><text x="0" y="95.30769230769216" dx="0em" dy="0.3em" style="text-anchor: end; visibility: hidden; font-family: Roboto, sans-serif; font-size: 12px; font-weight: 200;" fill="rgb(33, 33, 33)" stroke="none" stroke-width="1px">4.04</text><text x="0" y="81.69230769230784" dx="0em" dy="0.3em" style="text-anchor: end; visibility: inherit; font-family: Roboto, sans-serif; font-size: 12px; font-weight: 200;" fill="rgb(33, 33, 33)" stroke="none" stroke-width="1px">4.06</text><text x="0" y="68.0769230769229" dx="0em" dy="0.3em" style="text-anchor: end; visibility: hidden; font-family: Roboto, sans-serif; font-size: 12px; font-weight: 200;" fill="rgb(33, 33, 33)" stroke="none" stroke-width="1px">4.08</text><text x="0" y="54.46153846153856" dx="0em" dy="0.3em" style="text-anchor: end; visibility: inherit; font-family: Roboto, sans-serif; font-size: 12px; font-weight: 200;" fill="rgb(33, 33, 33)" stroke="none" stroke-width="1px">4.1</text><text x="0" y="40.84615384615362" dx="0em" dy="0.3em" style="text-anchor: end; visibility: hidden; font-family: Roboto, sans-serif; font-size: 12px; font-weight: 200;" fill="rgb(33, 33, 33)" stroke="none" stroke-width="1px">4.12</text><text x="0" y="27.230769230769273" dx="0em" dy="0.3em" style="text-anchor: end; visibility: inherit; font-family: Roboto, sans-serif; font-size: 12px; font-weight: 200;" fill="rgb(33, 33, 33)" stroke="none" stroke-width="1px">4.14</text><text x="0" y="13.61538461538433" dx="0em" dy="0.3em" style="text-anchor: end; visibility: hidden; font-family: Roboto, sans-serif; font-size: 12px; font-weight: 200;" fill="rgb(33, 33, 33)" stroke="none" stroke-width="1px">4.16</text><text x="0" y="0" dx="0em" dy="0.3em" style="text-anchor: end; visibility: hidden; font-family: Roboto, sans-serif; font-size: 12px; font-weight: 200;" fill="rgb(33, 33, 33)" stroke="none" stroke-width="1px">4.18</text></g><line x1="50" y1="0" x2="50" y2="177" fill="rgb(0, 0, 0)" stroke="rgb(204, 204, 204)" stroke-width="1px"></line></g></g><g transform="translate(50, 0)" clip-path="url(#clip_0)"><clipPath id="clip_0"><rect width="280" height="177"></rect></clipPath><g><g><g><line x1="0" y1="0" x2="0" y2="177" fill="rgb(0, 0, 0)" stroke="rgb(66, 66, 66)" stroke-width="1px" opacity="0.25"></line><line x1="28" y1="0" x2="28" y2="177" fill="rgb(0, 0, 0)" stroke="rgb(66, 66, 66)" stroke-width="1px" opacity="0.25"></line><line x1="56" y1="0" x2="56" y2="177" fill="rgb(0, 0, 0)" stroke="rgb(66, 66, 66)" stroke-width="1px" opacity="0.25"></line><line x1="84" y1="0" x2="84" y2="177" fill="rgb(0, 0, 0)" stroke="rgb(66, 66, 66)" stroke-width="1px" opacity="0.25"></line><line x1="112" y1="0" x2="112" y2="177" fill="rgb(0, 0, 0)" stroke="rgb(66, 66, 66)" stroke-width="1px" opacity="0.25"></line><line x1="140" y1="0" x2="140" y2="177" fill="rgb(0, 0, 0)" stroke="rgb(66, 66, 66)" stroke-width="1px" opacity="0.25"></line><line x1="168" y1="0" x2="168" y2="177" fill="rgb(0, 0, 0)" stroke="rgb(66, 66, 66)" stroke-width="1px" opacity="0.25"></line><line x1="196" y1="0" x2="196" y2="177" fill="rgb(0, 0, 0)" stroke="rgb(66, 66, 66)" stroke-width="1px" opacity="0.25"></line><line x1="224" y1="0" x2="224" y2="177" fill="rgb(0, 0, 0)" stroke="rgb(66, 66, 66)" stroke-width="1px" opacity="0.25"></line><line x1="252" y1="0" x2="252" y2="177" fill="rgb(0, 0, 0)" stroke="rgb(66, 66, 66)" stroke-width="1px" opacity="0.25"></line><line x1="280" y1="0" x2="280" y2="177" fill="rgb(0, 0, 0)" stroke="rgb(66, 66, 66)" stroke-width="1px" opacity="0.25"></line></g><g><line x1="0" y1="177" x2="280" y2="177" fill="rgb(0, 0, 0)" stroke="rgb(66, 66, 66)" stroke-width="1px" opacity="0.25"></line><line x1="0" y1="163.38461538461536" x2="280" y2="163.38461538461536" fill="rgb(0, 0, 0)" stroke="rgb(66, 66, 66)" stroke-width="1px" opacity="0.25"></line><line x1="0" y1="149.76923076923072" x2="280" y2="149.76923076923072" fill="rgb(0, 0, 0)" stroke="rgb(66, 66, 66)" stroke-width="1px" opacity="0.25"></line><line x1="0" y1="136.15384615384608" x2="280" y2="136.15384615384608" fill="rgb(0, 0, 0)" stroke="rgb(66, 66, 66)" stroke-width="1px" opacity="0.25"></line><line x1="0" y1="122.53846153846146" x2="280" y2="122.53846153846146" fill="rgb(0, 0, 0)" stroke="rgb(66, 66, 66)" stroke-width="1px" opacity="0.25"></line><line x1="0" y1="108.9230769230771" x2="280" y2="108.9230769230771" fill="rgb(0, 0, 0)" stroke="rgb(66, 66, 66)" stroke-width="1px" opacity="0.25"></line><line x1="0" y1="95.30769230769216" x2="280" y2="95.30769230769216" fill="rgb(0, 0, 0)" stroke="rgb(66, 66, 66)" stroke-width="1px" opacity="0.25"></line><line x1="0" y1="81.69230769230784" x2="280" y2="81.69230769230784" fill="rgb(0, 0, 0)" stroke="rgb(66, 66, 66)" stroke-width="1px" opacity="0.25"></line><line x1="0" y1="68.0769230769229" x2="280" y2="68.0769230769229" fill="rgb(0, 0, 0)" stroke="rgb(66, 66, 66)" stroke-width="1px" opacity="0.25"></line><line x1="0" y1="54.46153846153856" x2="280" y2="54.46153846153856" fill="rgb(0, 0, 0)" stroke="rgb(66, 66, 66)" stroke-width="1px" opacity="0.25"></line><line x1="0" y1="40.84615384615362" x2="280" y2="40.84615384615362" fill="rgb(0, 0, 0)" stroke="rgb(66, 66, 66)" stroke-width="1px" opacity="0.25"></line><line x1="0" y1="27.230769230769273" x2="280" y2="27.230769230769273" fill="rgb(0, 0, 0)" stroke="rgb(66, 66, 66)" stroke-width="1px" opacity="0.25"></line><line x1="0" y1="13.61538461538433" x2="280" y2="13.61538461538433" fill="rgb(0, 0, 0)" stroke="rgb(66, 66, 66)" stroke-width="1px" opacity="0.25"></line><line x1="0" y1="0" x2="280" y2="0" fill="rgb(0, 0, 0)" stroke="rgb(66, 66, 66)" stroke-width="1px" opacity="0.25"></line></g></g></g><g><g><line x1="0" y1="2845.6153846153866" x2="280" y2="2845.6153846153866" fill="rgb(0, 0, 0)" stroke="rgb(153, 153, 153)" stroke-width="1.5px"></line></g></g><g><g><line x1="28" y1="0" x2="28" y2="177" fill="rgb(0, 0, 0)" stroke="rgb(153, 153, 153)" stroke-width="1.5px"></line></g></g><g><g><g><g><g><path stroke="rgb(255, 112, 67)" stroke-width="2px" d="M33.711999999999996,-5.014960942795105L33.768,3.6704290083650095L33.992,4.939063729104966L34.44,6.923453952265416L34.86,5.884460281576175L34.888,5.0760669700410785L35.252,3.872366822848683L35.28,6.613867770982182L35.616,6.169436979448463L35.7,5.2230182837852634L35.924,7.099539396097437L36.007999999999996,11.17185261770492L36.288,7.007651570683768L36.876000000000005,7.171702330010062L36.96,5.92797205360308L37.044,7.997650166535937L37.715999999999994,12.349096371322993L38.052,12.726655723294643L38.220000000000006,13.526059425861067L38.275999999999996,12.018549890368778L38.612,14.787371654693361L38.836,16.618206687261022L38.948,10.699545160294198L39.004000000000005,14.971422483548475L39.284,9.728780514254115L39.34,6.704810309999359L39.648,14.56186571616196L39.844,15.090629662035601L40.236,13.913988483380958L40.264,14.244416398875133L40.32,12.20130902650168L40.516,11.626177457929566L40.936,12.348291575275207L41.048,17.78082388000727L41.3,18.955755028073295L41.328,16.76552192297748L41.468,17.997831763054638L41.496,18.79310427723747L41.663999999999994,18.167104157894183L42.30800000000001,13.4475273412609L42.364,15.333496555561865L42.392,18.599446658774045L42.42,19.337244047821898L42.504,18.278616207280717L42.56,12.603699949402403L42.952000000000005,13.358420782130434L42.98,14.87214696807457L43.036,16.166404097907737L43.092000000000006,14.633534702035522L43.147999999999996,10.551224351282976L43.316,16.519359870817567L43.483999999999995,17.32449649687676L43.596000000000004,16.551324842530114L43.763999999999996,17.299592479498386L43.82,15.306549726239721L43.932,13.007712943013372L44.547999999999995,14.563463724835366L44.660000000000004,14.306735848192975L44.716,19.04635398845508L45.22,17.561939265794948L45.471999999999994,17.980598022624374L45.611999999999995,21.752564652047162L45.64,21.798983423242255L45.864,19.425785453818566L46.032,18.050722504279282L46.06,17.073691430687465L46.452,16.648959292082026L46.704,20.18178751963719L46.928,21.96531973000595L46.955999999999996,20.819456492812563L47.404,16.908616474666914L47.46,18.259120817882042L48.216,14.934888290715204L48.328,15.329850051097369L48.495999999999995,18.167509305869846L48.86,21.689296009777085L49.419999999999995,17.26578884395151L49.728,15.307475212871147L49.756,19.883991244442033L49.924,18.02829710893872L50.092,20.221219254880772L50.54,16.041220200156747L50.568000000000005,21.44467725307639L50.623999999999995,24.067288275244348L50.96,17.61895825493878L51.324,20.05530836491926L52.024,15.876271481787503L52.276,13.35450501082519L52.416000000000004,11.975175728850271L52.836,17.042392126985266L53.144,20.98114649522732L53.256,18.13408997164718L54.068,19.96369852913106L54.404,32.091436100213656L54.6,36.164207815379406L54.992,38.508771822161286L56,44.49174252628205L56.084,47.111053219714314L56.14,52.843043889030604L56.448,55.75978533580416L56.644000000000005,51.83334908246386L56.756,51.236924679165774L56.812,54.01574150183551L57.064,58.06418802510717L57.596,55.664135466876964L57.988,56.5547927377121L58.016,51.540724539460065L58.072,55.09212858761032L58.184000000000005,58.012270554949104L58.436,56.8683199947199L58.772,60.30219196131231L58.88399999999999,61.21480645990251L58.94,57.759841070451216L59.023999999999994,57.459234486429956L59.08,63.66321908943107L59.136,58.61571294537347L59.416,63.72503975266048L59.528000000000006,66.45441100029457L59.724,65.14882563680187L59.78,60.74254831735364L60.116,62.290074524175004L60.256,60.68055760627382L60.284,62.02393263812564L60.62,63.98379178350032L60.9,63.97721396241685L60.956,62.22754980165659L61.18,65.41918535018432L61.432,66.66243776133575L61.46,66.25407823641221L62.02,64.52318442618935L62.132,67.88144252563433L62.327999999999996,65.33756279376013L62.916000000000004,68.28820075098257L63.056000000000004,68.72730458585295L63.084,68.09555983568916L63.14,65.15559902332676L63.224000000000004,58.70772660950243L63.336000000000006,68.34416057009666L63.504,66.310892875687L63.61600000000001,66.72258058820611L63.756,72.37371260930757L63.924,71.5909903380983L64.148,66.46302597403697L64.372,69.2169235909175L64.596,70.45415431520198L64.848,68.85978961169015L65.044,68.6685000438674L65.128,74.01553898896101L65.688,68.3737434541527L66.108,67.6522576838951L66.22,69.55178719935294L66.528,67.11461851614999L66.556,67.0812671917193L66.668,69.3362332098183L67.704,70.23529164709893L68.292,71.53781335710804L68.32,68.79141621078814L68.824,68.41911340803821L68.852,67.31635056067589L68.936,71.2418434936837L69.3,64.43063327162533L69.356,66.14816922005349L69.664,69.43592808575221L69.74799999999999,68.69328215815271L69.86,71.59256774297936L70.084,69.66958920624694L70.28,71.87541395569997L70.30799999999999,71.33360272288131L70.39200000000001,69.68982721827997L70.476,68.27571623364202L70.812,69.22241741727444L71.092,70.73337963238126L71.372,72.57255076234794L71.45599999999999,71.74178427835756L71.848,74.29271239085215L71.932,73.7403880679704L72.072,72.29740560904528L72.15599999999999,78.02590550505448L72.408,73.44030699823635L72.716,74.80005748963421L72.856,76.22105235962476L72.912,80.29902547249607L73.58399999999999,75.39182821772457L73.808,74.25406049545423L73.86399999999999,74.60510042116147L74.14399999999999,69.19645069553276L74.34,77.55749883061566L74.788,79.35105676375525L74.984,75.33542416808059L75.04,79.70340314911779L75.208,81.82217585573882L75.46000000000001,82.24688331677743L75.684,77.66870206499888L75.74000000000001,78.31948994913411L75.824,84.04603267270431L75.908,82.7429579853901L75.93599999999999,82.63544638144052L76.13199999999999,80.59978135914062L76.27199999999999,81.3200841780052L76.468,79.88787289300879L76.888,77.46254348541441L77.14,78.3583512475709L77.72800000000001,79.20689442045916L77.78399999999999,78.50604473144917L78.12,82.695389144874L78.204,85.04544314287708L78.428,81.68328050126297L78.96,83.93881271334052L79.744,82.42043795008884L79.85600000000001,84.47326636210879L80.108,86.5104973793214L80.248,89.09488076758238L80.304,85.46853624439206L80.892,80.6665672163743L81.19999999999999,83.46023807567843L81.284,83.40311200612587L81.452,86.09027732494901L81.47999999999999,79.95563155215751L81.89999999999999,83.49600949025722L81.92800000000001,78.32842241983833L82.236,83.71269474318089L82.348,83.89241753955346L82.488,82.69081958627274L82.544,87.20366425931073L82.90799999999999,82.45956760128473L82.936,87.12739685912759L83.02,89.55979141329315L83.07600000000001,94.13806130126554L83.384,88.72885907065586L83.44,87.04356493752728L83.664,85.7327464699738L83.692,89.42351045390078L85.988,93.32620934475337L86.24,96.10776148730105L86.52,94.81542945072424L86.828,96.25021292444457L87.08,98.92423746044346L87.22,103.17297759830078L87.24799999999999,100.31171401174511L87.36,98.62441536937219L87.38799999999999,97.42631400107676L87.584,95.90445464688933L87.92,99.75904325691582L88.76,99.7682592052122L89.264,102.5283341195244L89.46000000000001,103.24606980471172L89.88,97.33063836136667L90.048,102.07651959049726L90.328,101.31377865454787L90.636,94.73519554076262L90.72,100.31918275763164L90.86,103.5346962867336L91.22399999999999,101.53603616761075L91.896,103.3139160201283L92.568,106.87107216168603L92.876,104.98585756269945L92.96000000000001,105.52712636150383L93.10000000000001,103.29674257697017L93.324,105.3365150952566L93.604,103.72822238263078L94.08000000000001,103.93270156159485L94.92,101.81412862691523L95.032,107.12327714103151L95.06,105.64920453060445L95.172,105.87976119518262L96.236,108.96674360157526L96.376,109.38127043865154L96.74,106.70379607555273L96.964,103.67705348071954L97.048,101.54231608042085L97.608,107.3647218853314L97.832,107.48251588906984L97.972,107.43373196539937L98.112,108.13831278961746L98.504,107.93740973089707L98.55999999999999,105.65559066067267L98.812,109.59174585614332L98.86800000000001,114.21991901588848L99.092,116.02564555953064L99.876,112.25811893378138L100.184,115.1595829111451L100.212,106.57695299168174L100.492,109.91355769599755L100.604,111.71392251762468L100.8,110.58507270323052L100.99600000000001,114.08807641880877L101.36,109.21017975044862L101.584,113.37664853884502L101.612,111.63313181607637L101.80799999999999,110.22312880143241L101.92,110.83511660603001L101.948,108.26781416766525L102.032,110.30085089309037L102.56400000000001,110.79176668183419L102.788,112.60532408064472L102.816,106.79783980324738L102.89999999999999,105.49612844568398L103.096,109.85039347503769L103.17999999999999,109.2796659880002L103.236,111.18506067390058L103.32,112.09028474079686L103.432,114.89709440946037L103.68400000000001,110.94681024758252L103.852,107.6600941722206L103.992,108.02117312040856L104.104,108.04442915317081L104.44,106.51929387200468L104.46799999999999,111.13924434419306L104.58,108.06364643830281L104.72,115.93912777704276L104.74799999999999,121.78428704488736L104.776,115.66516215490503L104.86,116.7257466494763L105.11200000000001,115.58234532621081L105.14,114.9979500776158L105.16799999999999,113.33796587158454L105.30799999999999,116.12891094600785L105.448,118.30352486016001L105.53200000000001,119.02434367805881L105.672,116.93799500109168L105.812,120.93738981446032L106.008,116.18053927375095L106.764,114.48442099256116L107.38,110.43604998036756L107.66,118.33214518814361L107.856,120.66307104633496L108.136,117.96693497978987L108.16399999999999,116.27868858887041L108.696,123.35037344049533L108.976,123.40635654872824L109.03200000000001,120.99973814045134L109.73200000000001,123.47908999397976L109.816,123.29889822695638L110.18,122.70656406456166L110.684,117.91215771965572L110.768,121.77730077853104L110.964,120.40851439070767L111.048,119.89932270575193L111.27199999999999,122.88697220803743L111.636,119.7104677069178L111.916,119.59858364434722L112,123.29316236343122L112.084,124.72133093451934L112.56,120.24282770528443L112.98,118.67857874023997L113.344,120.42432696875674L114.35199999999999,121.02804385633439L114.38,121.88658217858737L114.71600000000001,119.74812363219716L114.91199999999999,121.36445859577593L114.94,123.03573932200634L114.968,122.43893688828919L115.136,122.55435531657965L115.248,127.38405143148628L115.36,125.54111588342818L115.388,122.98615900473818L115.416,123.75223288363954L115.556,127.67011386039749L115.612,128.80863329608445L116.08800000000001,124.9595761835389L116.872,127.65040552606831L117.012,122.84987615846481L117.348,126.64624240603615L117.404,130.77683949066497L117.6,128.96637246426735L117.74,126.74244799571396L118.104,129.7010416577646L118.18799999999999,125.39287417278969L118.244,127.21422181994751L118.44,126.52432706659205L118.77600000000001,123.12330975912472L118.832,123.96140240683349L119.448,128.0306795013991L119.532,125.41841416161996L120.372,121.15487804532428L120.596,127.66533452790893L121.548,126.06298658469659L121.996,126.28195922220331L122.24799999999999,127.68320155433732L122.444,124.52624660343906L122.5,125.89358274463844L122.584,131.69049507674572L122.64,130.86737883430595L122.78,124.4249920252319L122.80799999999999,125.47394915131137L123.03200000000001,125.59038606296807L123.34,129.13625377558316L123.732,128.34618886531712L123.84400000000001,125.34315204596422L123.95599999999999,126.37247565660641L124.18,128.1130132008236L124.32000000000001,125.46310013424137L124.93599999999999,121.25799044640384L125.132,122.06874778773754L125.52399999999999,123.33582182912042L125.552,127.2735463155723L125.58,122.9008615697375L125.608,120.73029015337521L125.776,121.05310319750845L125.83200000000001,122.8849318066518L126.028,126.63617912261954L126.42,126.81180542769643L126.756,126.36946808383914L127.26,123.73282280717528L127.428,130.8129599038856L127.652,133.4475129908481L127.876,131.05416128912708L127.96000000000001,130.1338258473237L128.156,126.79295020360136L128.464,122.89963055750631L128.492,126.66645221127925L128.828,127.08696548277065L129.192,127.90813197315572L129.22,129.3918804018729L129.248,126.54277051820922L129.276,131.96974921667686L129.668,131.05209171166132L130.34,129.2163933304125L130.424,125.64750349357412L130.48000000000002,129.11134152263782L130.536,131.6496496805549L130.62,133.24778001219605L130.732,131.55589015330736L130.816,122.40612519017927L130.844,123.8113507398755L131.348,131.3666065085076L131.62800000000001,132.89562575757105L131.964,132.64053980534948L132.10399999999998,131.5599265561805L132.524,131.18142300793357L132.888,130.7877747635152L132.916,128.87946495584896L132.972,131.94798598391634L133,133.09632596829175L133.084,133.93197370106338L133.112,133.54538652725873L133.14,134.85458337148992L133.336,132.4672948470013L133.392,134.4525281729383L133.868,129.4243679298667L133.924,129.7898326453131L133.952,132.87753070746692L134.064,130.68917139981707L134.148,131.21763634752142L134.792,132.3808672297136L135.072,131.99534970075987L135.772,131.95937447407624L135.828,135.8318021336537L136.108,137.74697680516476L136.35999999999999,132.18245976594227L136.44400000000002,130.43113811936755L137.284,136.76101912649997L137.536,135.62015712214222L137.648,139.38195021544638L137.816,140.54199787705684L138.15200000000002,137.6720425427775L138.23600000000002,144.08410930954003L138.712,137.90085503456777L138.824,140.69424396683866L139.076,140.10065628204055L139.328,136.3122150499631L139.49599999999998,135.35839243546957L139.636,137.5474235659574L140.252,137.64444143852197L140.364,135.75302989228055L140.42,133.16842344829078L140.672,133.5100191708452L140.812,138.45967785508614L140.98,139.80030426253202L141.148,140.10318141371243L141.344,139.9206944048412L142.38,137.943595401901L143.08,137.28880248161505L143.24800000000002,141.7064392140553L143.416,140.89669507591032L143.5,139.2786449484314L144.116,137.0613311723703L144.39600000000002,134.47857000050624L144.704,136.38557502618926L144.984,137.40387547236907L145.012,138.5382206983361L145.096,137.51508488986912L145.404,133.97362442629526L145.824,136.99554602302726L146.216,137.6488523640632L146.38400000000001,136.11941505316597L146.44,139.23335347910862L146.63600000000002,143.83583995329184L146.91600000000003,142.31462204182813L147,140.53012957889007L147.084,139.7378490719021L147.112,138.71660170822847L147.22400000000002,141.20819580176868L147.868,142.85180988544732L147.89600000000002,141.91674075787788L148.372,140.73209601908647L148.93200000000002,138.84901246040806L149.072,141.37485705825182L149.21200000000002,142.20347951658067L149.38,140.0830111768796L150.55599999999998,145.41264127627238L150.64000000000001,144.53976239940823L151.088,142.46684949189503L151.312,145.86718104147815L151.42399999999998,144.98708637456284L151.508,143.91478640489476L151.844,145.55267038514455L151.9,144.15201479109578L152.208,148.51111296584253L152.432,151.41705659997717L152.74,144.29556745584065L153.076,142.00229972758115L153.72,142.08661395794707L153.888,142.26042181058978L154,142.60360036996707L154.42,140.24236973533635L154.58800000000002,144.31030055481432L154.728,146.61167338200522L155.00799999999998,144.519726196472L155.12,145.29794873941833L155.232,144.7586317965671L155.26,145.83187765854294L155.764,143.77845776062222L155.82,147.54969251243355L155.932,144.06088818380496L156.1,144.71731407320303L156.324,141.5560767677076L156.604,143.72604180343683L156.99599999999998,146.26324654442413L157.08,150.3289393527867L157.16400000000002,145.38908353239842L158.2,144.91409518641564L158.34,144.1770194089702L158.452,138.8261697814545L158.48,138.98443814045788L158.56400000000002,138.62420829860775L158.70399999999998,141.87561047158144L159.012,140.5332345730651L159.236,140.0583637677367L159.348,141.55701365784614L159.404,139.70458192871382L159.572,142.01986995848353L159.796,142.65018343497962L159.82399999999998,141.66283511642663L159.99200000000002,144.06788723343098L160.076,143.17254261904841L160.46800000000002,142.98155874263287L160.664,147.55673957713552L161.28,143.82281683434218L161.476,143.68678034268987L161.644,146.3438769711719L161.756,143.66299322864L161.784,145.60814740646865L162.148,144.72015971637012L162.54,143.95885625812352L162.624,140.519715005672L162.708,140.56753769865028L162.764,142.50602534433148L162.82,144.68973540116838L163.26799999999997,143.5816244294767L163.324,147.19467885710566L163.38,150.26072982672974L163.40800000000002,143.6275399829579L163.436,147.01642117133986L163.632,141.8238943948769L163.66,141.1227186170223L164.16400000000002,139.41895884995319L164.72400000000002,146.0600216567929L165.088,142.85574739163292L165.452,142.6867569051331L165.50799999999998,146.42976028235336L166.04,146.21707418667205L166.15200000000002,150.22127662796245L166.34799999999998,147.0816845683434L166.46,142.44644946388564L166.6,142.46139024653186L167.468,143.7527117762186L167.748,140.433713813057L167.77599999999998,142.2817640287691L168.67200000000003,141.4843532167711L169.344,143.6827075985364L169.68,141.8056911984658L169.736,141.54113765426396L169.876,147.6375216752118L170.24,147.95782597443565L170.268,146.34573088581215L170.492,143.8959372319066L170.548,146.82883256534433L170.68800000000002,149.15181982154934L171.724,146.02469553212873L171.836,142.1556574334239L171.948,145.30958565411308L172.144,145.59657850165112L172.256,143.11638550529236L172.284,149.00055422343087L172.34,144.54198298670568L172.36800000000002,141.8255782772838L172.704,146.647196565793L173.264,147.28661808499598L173.572,145.90102355692267L173.628,149.30960818072148L173.768,147.03960035939645L173.824,147.42260517556775L173.964,147.65417760079148L174.132,148.23213958059026L174.328,145.99781927866346L174.692,146.5677376810189L175.112,143.35493617383375L175.14,148.0150390908101L175.252,144.9589751976863L175.364,148.1504045838849L175.448,147.14076844619703L176.036,146.47367563151934L176.288,148.3606179303456L176.344,148.28398270643015L176.93200000000002,149.74776195067082L176.96,146.80477330006227L177.04399999999998,146.61634317855953L177.1,145.01434830417645L177.21200000000002,145.38290436622935L177.24,144.26866426193004L177.38,143.40289931836764L178.164,150.1219324846924L178.332,151.44815485996645L178.388,151.59225434884493L179.03199999999998,147.29524962845602L179.284,146.38892613340502L179.31199999999998,145.8987014104462L179.704,147.81187091122632L179.89999999999998,151.05843500094346L180.012,147.79887672910442L180.488,145.34837215495358L180.684,144.28775246105124L180.73999999999998,142.8819156672382L180.824,141.03951088679202L180.88,146.98330495468258L181.91600000000003,146.8373166800063L182.14,146.43846931235345L182.28,151.68079559093155L182.308,146.43054384569862L182.50400000000002,149.58769773694434L182.616,147.83623107143373L182.672,150.67946622688237L183.28799999999998,147.36570627008078L183.484,151.33529026925825L183.90400000000002,148.09436860597333L184.24,141.70462515187106L184.94,144.06081213484114L186.032,146.6363090762781L186.312,153.0355210958858L186.70399999999998,154.98285940908676L187.26399999999998,150.52423081241722L187.796,149.98895461425403L187.992,151.81586229366667L188.076,146.7722677727338L188.272,147.36005496301502L188.46800000000002,144.65922999342027L188.552,148.15023375318245L188.74800000000002,143.7147693575567L189.02800000000002,149.91275178381366L189.084,149.27377757438146L189.168,150.17613605653347L189.196,150.6241719755812L189.224,149.90882857173517L189.25199999999998,152.98637936127054L189.448,148.60383707253945L189.644,148.89333100740382L189.89600000000002,149.78077916515272L190.12,146.513789976318L191.324,147.05704954036585L191.8,142.9664752058763L192.27599999999998,147.8468439531324L192.64,149.91858549478158L192.668,150.77600176595772L192.72400000000002,153.365214698202L193.816,149.76517483519373L194.572,146.1307657304247L194.71200000000002,147.92791782183565L194.796,149.39988183885822L195.02,150.5945803270145L195.18800000000002,148.70179480029367L195.496,143.1568406003743L195.74800000000002,148.9873501279262L195.944,143.85484138556242L196.112,144.78108056397434L196.28,145.42692092844987L196.308,149.42569888113013L197.26,151.83296202986241L197.288,150.21895833778854L197.512,153.3819578824695L198.156,150.35379800061244L198.212,149.07025451679854L198.23999999999998,149.05126924681886L198.54799999999997,152.58479807509715L198.632,154.31599741603873L199.024,149.74012061472433L199.13600000000002,146.84864796594292L199.192,144.0761070791306L199.752,149.47720707286294L199.892,152.87906214489905L199.94799999999998,148.4070044831377L200.00400000000002,151.67607415068042L200.732,153.68476049309223L201.544,149.4505305494493L201.768,150.84045707300055L201.93599999999998,152.1039748468865L202.21599999999998,154.6746657626154L202.328,156.85723133637444L202.44,154.3629749715481L202.55200000000002,149.5863888359835L202.636,150.1888361684984L202.83200000000002,152.8595812582555L203.05599999999998,151.33312608960696L203.84,147.69269492527775L203.896,148.69517377953576L204.09199999999998,146.500072564954L204.316,153.94362865730497L204.344,152.79612505849045L204.428,151.8089810662045L204.82000000000002,153.78691489864076L205.212,156.63362841876784L205.32399999999998,155.74119484483734L205.352,153.9768340250451L205.38000000000002,153.13455667915807L205.744,154.08260811337945L206.052,154.65872734914964L206.07999999999998,154.18417838932734L206.22,152.50311446080153L206.276,152.85879538879473L206.35999999999999,149.8773547159284L206.668,155.2308725511775L207.39600000000002,155.7458900046864L207.9,156.73545295283813L208.404,153.88948608684584L208.432,152.4560819932769L208.6,152.68324671072165L208.88,153.91137370159873L209.272,150.02957205023444L209.77599999999998,148.27231210207017L209.86,151.4696669837466L209.888,151.71074846116667L210.644,151.8641660978156L210.812,157.48635562223907L210.896,155.0958986610805L211.148,148.96115620958875L211.316,151.23582751591655L211.456,147.56104089487408L211.48399999999998,153.69604749137818L211.82,159.59231548965454L211.96,157.1826050051596L212.40800000000002,159.84629170758154L212.548,156.95731341492473L212.68800000000002,160.2679917605094L212.8,156.01103539997106L213.24800000000002,157.4654013894925L213.276,154.3457699748853L213.64000000000001,152.8770093780217L214.20000000000002,154.36554097157793L214.536,154.8051014187104L214.87199999999999,152.69992337517067L215.544,152.70792812685113L215.852,145.36665718465503L216.04799999999997,145.57716437534546L216.188,147.81493443128605L216.244,150.34723457390126L216.29999999999998,152.72643980405098L216.468,158.40317005740133L216.57999999999998,151.89740665237002L217.028,154.3905325866574L217.336,154.48830046830346L217.392,156.66583494998306L217.75599999999997,153.20758239681297L217.84,155.24586412847236L218.00799999999998,157.81296031888002L218.484,162.7512248084204L218.59599999999998,159.6366720918582L219.016,158.8723324653019L219.296,154.9151921069694L219.38,156.50362756883592L219.46400000000003,154.15219416800127L219.60399999999998,155.88797476108527L219.66,154.62858863061902L219.828,153.65911128087146L220.08,153.13989627157022L220.27599999999998,148.56599984267578L220.388,154.49972579270914L220.528,160.59828102297797L221.004,158.69563168260652L221.62,159.84463618535324L221.676,160.52854155546726L221.76000000000002,163.1517831060422L222.068,163.92066426626002L222.26399999999998,164.8329387516126L222.88000000000002,156.97548958294433L223.328,158.1297010407547L223.496,158.43039349033978L223.776,151.88142444942238L223.916,155.65428520957306L223.972,152.55843759926978L224.056,159.78078246664333L224.364,156.49846928111393L224.53199999999998,157.59391240848197L224.81199999999998,154.41758300302965L224.84,159.12325235961976L224.89600000000002,159.3159247251234L225.26,159.88091254587175L225.512,160.3393343150229L225.54,157.81859972532834L226.268,151.62643925893954L226.464,156.15214664678257L227.108,156.63118738413496L227.304,154.60333368168082L227.388,159.63293603557426L227.55599999999998,159.30994098644854L228.62,158.92447263097475L228.98399999999998,158.25636470448316L229.012,154.8672557613587L229.068,159.62755149797292L229.236,160.7589122125183L229.32,155.7271306892577L229.82399999999998,159.44352200883998L230.048,157.21561296102044L230.328,158.50554590953416L231,160.4366737168107L231.112,158.43823696163898L231.336,158.55971584153124L231.448,153.28659753465698L231.70000000000002,157.66791654977197L232.232,154.56250584042425L232.484,157.47749049960115L232.652,163.07211949744092L233.23999999999998,161.14441520733922L233.38,161.23275579315006L233.492,160.2505708976779L233.54799999999997,164.31534496776968L233.912,162.4177997617737L233.968,160.42323102992574L234.052,157.92332924752665L234.192,156.66251753276373L234.304,152.79174829893824L234.584,153.27219570666847L234.808,157.70263684006287L235.704,156.92637282503497L235.9,159.61078004467765L236.208,161.04530925807404L236.236,161.47462422006816L236.32,161.25434338578629L236.40400000000002,160.83963316469686L236.908,158.26625264895554L237.02,156.63968274047915L237.132,153.61095108448427L237.188,152.30037281114457L237.524,160.78024737978075L238.028,160.8503413126564L238.196,160.71275096389158L238.39200000000002,159.81818900919671L238.532,158.84226117592948L238.756,157.56656810935445L238.92399999999998,158.26210546077562L239.23200000000003,157.2180415446836L239.456,158.88022018775388L239.512,161.28586759899872L239.68,160.1447969314213L239.848,161.00521370274623L240.184,160.52344764383577L240.436,159.47438177803065L240.632,156.88218669755835L240.828,155.09788514460803L240.884,156.6988947796815L240.94,160.42915669239343L241.024,160.8582502082292L241.892,157.713158615482L241.92,159.05117463772456L242.06,155.56575721054537L242.08800000000002,155.679245801926L242.452,158.4528449492067L242.50799999999998,162.48709285856074L242.536,156.11696205444105L243.208,162.63051440323795L244.21599999999998,162.51762443403723L244.38400000000001,160.8871711045191L244.412,161.20883690374177L244.468,165.76804179463903L245.196,162.5831277731133L245.22400000000002,160.79021171916187L245.28,159.47503316501812L245.308,164.96805392263227L245.33599999999998,162.90837359442125L245.42,163.34923909667506L245.812,167.20803090216586L246.008,164.83528667455136L246.26,165.0507120987292L246.288,164.88117407283457L246.68,166.73554690537625L247.016,167.27283019839288L247.49200000000002,163.07513909316214L247.60399999999998,162.99479665532021L247.828,162.24159326465988L247.96800000000002,161.04993222388325L247.996,160.67288033503672L248.164,161.97625040400732L248.332,162.47264287089948L248.724,163.23704887919797L249.088,158.69826944024257L249.256,161.2151417272019L249.61999999999998,161.39855410044328L249.67600000000002,157.4373618998821L249.704,161.1691392972511L249.87199999999999,162.79359629591534L249.95600000000002,157.63655520231453L250.012,159.67148817299082L250.04,156.38352514477825L250.23600000000002,158.87376916423918L250.88,163.62115764814712L251.63600000000002,165.88580353771982L251.832,162.76955250846567L252.56,169.6168976648214L252.75599999999997,164.0001174855039L252.84,165.2559595616523L252.868,163.3337840454598L252.924,166.93291467476473L253.31599999999997,166.57954406516396L253.54,165.1994618446241L253.736,164.45531275185098L253.84799999999998,163.9660142910984L254.18400000000003,162.56031779094866L254.21200000000002,168.8265509911435L254.408,161.59438586502188L254.71599999999998,161.58133780488342L254.856,160.8132648960232L255.444,162.36772120570205L255.668,165.40710990276904L256.004,163.85060976635125L256.06,166.93935781631973L256.2,163.84865821967833L256.592,163.82442057855647L256.62,164.89934671914767L256.676,161.83181960047867L257.012,163.66753317177663L257.18,162.61183316232442L257.20799999999997,161.72251826886836L257.404,158.81132172390093L257.432,158.8552897316533L257.628,162.97997453504465L257.656,161.91529261112132L257.768,163.6839340467399L258.07599999999996,162.3476480434106L258.104,164.24464613032978L258.44,161.32278921141815L258.468,163.8595402308724L259.168,163.52198087861896L259.784,158.6571437960937L259.952,162.03204236823964L260.036,165.8411712832297L260.06399999999996,167.8538074480343L260.176,170.81214831292434L260.316,166.02377684033223L260.456,168.0285993325762L261.604,167.36485685743406L261.8,163.81297123176475L261.884,162.03407887057767L262.192,162.93700489115201L262.276,160.25522763287893L262.444,160.62481268033494L262.584,160.53601145317896L262.696,163.16019777229167L262.808,166.49274662974844L262.836,167.72875796076065L263.06,164.15083821671286L263.144,166.3422481285466L263.536,162.78171862317998L263.62,162.06825585769258L263.676,161.63314555895877L264.236,162.28358702621816L264.32,160.29121920244148" style="fill: none;" fill="none"></path></g></g></g></g><g opacity="0.2"><g><g><g><path stroke="rgb(255, 112, 67)" stroke-width="2px" d="M33.711999999999996,-1.6226388491119033L33.768,12.856211515573175L33.992,6.280788494990227L34.44,9.022171167226745L34.86,4.785606897794097L34.888,4.221099560077191L35.252,2.599317697378112L35.28,9.513315274165032L35.616,5.69940112187293L35.7,4.222073408273351L35.924,9.08417283571665L36.007999999999996,15.478784707876178L36.288,2.6035377062282095L36.876000000000005,7.345204573411016L36.96,4.612586534940093L37.044,10.186568993788317L37.715999999999994,16.95124318049486L38.052,13.125967465914025L38.220000000000006,14.371519308823633L38.275999999999996,10.424187953655347L38.612,17.715714014493315L38.836,18.55452192746659L38.948,4.4398907881514695L39.004000000000005,19.48941619579591L39.284,4.184093328622472L39.34,3.506619600149108L39.648,22.87159098111649L39.844,15.649857374337824L40.236,12.669557277972698L40.264,14.59388131361723L40.32,10.040491764361859L40.516,11.017910737257555L40.936,13.112008975102173L41.048,23.52634158501241L41.3,20.198377682612318L41.328,14.44910254845235L41.468,19.301138877868475L41.496,19.63419496096079L41.663999999999994,17.505038188053835L42.30800000000001,8.456040749182879L42.364,17.32812243241513L42.392,22.05355849632833L42.42,20.117548282329683L42.504,17.158997462345827L42.56,6.601833783663048L42.952000000000005,14.156623473534033L42.98,16.473083716172265L43.036,17.535227482135298L43.092000000000006,13.012351843026789L43.147999999999996,6.233719165508373L43.316,22.831338589007856L43.483999999999995,18.176019595219362L43.596000000000004,15.733608319208997L43.763999999999996,18.09097018608663L43.82,13.198681464561865L43.932,10.57643288832426L44.547999999999995,16.208846238943075L44.660000000000004,14.03521706507738L44.716,24.059036548320893L45.22,15.992002707261133L45.471999999999994,18.423377037048162L45.611999999999995,25.74184623131368L45.64,21.848076526935102L45.864,16.91586002936712L46.032,16.596437821021258L46.06,16.040370501004546L46.452,16.19975698911208L46.704,23.91815317594071L46.928,23.85160688253533L46.955999999999996,19.607576443598646L47.404,12.772460570702002L47.46,19.687431995685102L48.216,11.419136194082213L48.328,15.74756681002085L48.495999999999995,21.16865510206938L48.86,25.41398400526764L49.419999999999995,12.587429413428485L49.728,13.236336928147344L49.756,24.72417486630936L49.924,16.06569055410513L50.092,22.540482594416517L50.54,11.620398154625342L50.568000000000005,27.15944458888111L50.623999999999995,26.840996228731427L50.96,10.799119509183258L51.324,22.632024324857106L52.024,11.456467041602313L52.276,10.68745158268836L52.416000000000004,10.516378916226715L52.836,22.401546918428693L53.144,25.14682498344991L53.256,15.123005500206396L54.068,21.898716633136274L54.404,44.91789106222283L54.6,40.47162481454686L54.992,40.98841359065113L56,50.81941113105171L56.084,49.88127070206847L56.14,58.90527270390422L56.448,58.84456949967589L56.644000000000005,47.680698394775234L56.756,50.60613837608909L56.812,56.954654766962925L57.064,62.34587838099539L57.596,53.12580827566279L57.988,57.49676359616778L58.016,46.237779984107235L58.072,58.84814027639521L58.184000000000005,61.10065115415118L58.436,55.65846281785216L58.772,63.933900172893686L58.88399999999999,62.17999957158002L58.94,54.10582417708162L59.023999999999994,57.1413090045634L59.08,70.22463490412771L59.136,53.27740397820091L59.416,69.1287310673639L59.528000000000006,69.34102997413034L59.724,63.7680213634783L59.78,56.08241139925428L60.116,63.92675861945505L60.256,58.97831131861746L60.284,63.444703762347736L60.62,66.05656462449281L60.9,63.970257172217586L60.956,60.37708194439214L61.18,68.79470113607539L61.432,67.97731788341802L61.46,65.82219182527967L62.02,62.69256833883418L62.132,71.4331805155826L62.327999999999996,62.64712208967928L62.916000000000004,71.40883431067819L63.056000000000004,69.19170658404997L63.084,67.42741826864375L63.14,62.046257752638454L63.224000000000004,51.888371834387996L63.336000000000006,78.53578002636236L63.504,64.16048218653738L63.61600000000001,67.1579869343683L63.756,78.35042425302346L63.924,70.76317295661325L64.148,61.03962333385747L64.372,72.12948197584872L64.596,71.76266582195562L64.848,67.1735685055071L65.044,68.46618967789857L65.128,79.67063779097325L65.688,62.40690620128911L66.108,66.8892048322236L66.22,71.5607546292817L66.528,64.53703682239225L66.556,67.045994391808L66.668,71.72111496558541L67.704,71.1861476898192L68.292,72.91537747016305L68.32,65.88679042229272L68.824,68.02536106109605L68.852,66.15005405132574L68.936,75.39349651336656L69.3,57.22700764582693L69.356,67.96465785686773L69.664,72.91310515770532L69.74799999999999,67.9078500454241L69.86,74.6588903573842L70.084,67.63582178262551L70.28,74.2083232586199L70.30799999999999,70.76057602809011L70.39200000000001,67.95134859818666L70.476,66.78013383425184L70.812,70.22366105593153L71.092,72.33139316852262L71.372,74.51768236893861L71.45599999999999,70.86315470475404L71.848,76.99060755509583L71.932,73.15624259068403L72.072,70.77128835824807L72.15599999999999,84.08444243211L72.408,68.59051763094374L72.716,76.23814751551689L72.856,77.72391524681665L72.912,84.6119435383722L73.58399999999999,70.20191177955026L73.808,73.05074236943159L73.86399999999999,74.97636486933769L74.14399999999999,63.47619152069078L74.34,86.40025344261745L74.788,81.24794725271359L74.984,71.08843825413618L75.04,84.32303524017323L75.208,84.06301777179412L75.46000000000001,82.69605952042787L75.684,72.826757284311L75.74000000000001,79.00777178544251L75.824,90.10249966841465L75.908,81.36480903625477L75.93599999999999,82.5217406933123L76.13199999999999,78.44683522444492L76.27199999999999,82.08188592470597L76.468,78.3731473776009L76.888,74.8974831654474L77.14,79.30576933347248L77.72800000000001,80.10432485433712L77.78399999999999,77.76481687105607L78.12,87.12609496483425L78.204,87.53089119837821L78.428,78.12741301609907L78.96,86.3242932833157L79.744,80.8145848054151L79.85600000000001,86.64436472379231L80.108,88.66509973085832L80.248,91.82815867203921L80.304,81.63326652233404L80.892,75.58794153653645L81.19999999999999,86.41486116556008L81.284,83.34269472268899L81.452,88.93225875267605L81.47999999999999,73.46754939739508L81.89999999999999,87.24035981985226L81.92800000000001,72.86311428363493L82.236,89.40717205634472L82.348,84.08249473571766L82.488,81.41999376737141L82.544,91.97650821392341L82.90799999999999,77.44214850205628L82.936,92.06415455157928L83.02,92.13232392531162L83.07600000000001,98.98009982475857L83.384,83.00801555926971L83.44,85.26117566915646L83.664,84.34640759688145L83.692,93.32691104595466L85.988,97.45375508528477L86.24,99.04956766275248L86.52,93.44864207047671L86.828,97.76765882051897L87.08,101.75232102320734L87.22,107.66650111858652L87.24799999999999,97.28560396341166L87.36,96.83990610562827L87.38799999999999,96.15918621650097L87.584,94.29491615295399L87.92,103.83570693089402L88.76,99.77800611349242L89.264,105.44742569556591L89.46000000000001,104.0051565170287L89.88,91.07440016819868L90.048,107.09582607562716L90.328,100.50709379636314L90.636,87.77759940807624L90.72,106.22488117218006L90.86,106.93546573932345L91.22399999999999,99.42222690582264L91.896,105.19422516456005L92.568,110.63316734020518L92.876,102.99202977693987L92.96000000000001,106.09957937093871L93.10000000000001,100.9378593151385L93.324,107.49380537179789L93.604,102.02727083059447L94.08000000000001,104.14896143399741L94.92,99.57349799229537L95.032,112.7383025242731L95.06,104.09020592616145L95.172,106.12360095977772L96.236,112.231576846196L96.376,109.8196794803325L96.74,103.87206393021792L96.964,100.47593065408549L97.048,99.2845896940964L97.608,113.5225749382605L97.832,107.60709637861974L97.972,107.382137445303L98.112,108.88348674774159L98.504,107.72493201035708L98.55999999999999,103.2423087633572L98.812,113.75467542501588L98.86800000000001,119.11473589677068L99.092,117.93540573120107L99.876,108.27353316086977L100.184,118.22820942218478L100.212,97.49985056657046L100.492,113.44239477010865L100.604,113.61801206148577L100.8,109.39118627401488L100.99600000000001,117.79289927849393L101.36,104.05125199831438L101.584,117.78316079653216L101.612,109.78916557018565L101.80799999999999,108.73189104520348L101.92,111.48236296727097L101.948,105.55260130075297L102.032,112.45101730640108L102.56400000000001,111.31096568474392L102.788,114.5233662678644L102.816,100.65576795431274L102.89999999999999,104.11942137204673L103.096,114.45552151019747L103.17999999999999,108.67605708195603L103.236,113.2002311853261L103.32,113.0476616345918L103.432,117.86561327714178L103.68400000000001,106.76893769777728L103.852,104.18401996905978L103.992,108.40305497096125L104.104,108.06902503967274L104.44,104.90629071455724L104.46799999999999,116.0253648024338L104.58,104.81085359133196L104.72,124.2683405509361L104.74799999999999,127.96620445985052L104.776,109.19349509019106L104.86,117.8474347774798L105.11200000000001,114.37306902958787L105.14,114.37988596696108L105.16799999999999,111.58234471541174L105.30799999999999,119.0806512099045L105.448,120.60342517265897L105.53200000000001,119.78669115213236L105.672,114.73144516578077L105.812,125.1672024360069L106.008,111.14963150024404L106.764,112.69058396266047L107.38,106.15443948598998L107.66,126.68315946138813L107.856,123.12828892927895L108.136,115.11546597113966L108.16399999999999,114.49317697378297L108.696,130.8294804646418L108.976,123.46556502122137L109.03200000000001,118.45446681976308L109.73200000000001,126.10128516417275L109.816,123.10832504125733L110.18,122.08010365412775L110.684,112.8415304330678L110.768,125.86512697659997L110.964,118.9608678817748L111.048,119.36079487433793L111.27199999999999,126.04674966518687L111.636,116.35095471602212L111.916,119.48025358640221L112,127.20059746962319L112.084,126.23178082246038L112.56,115.50630371387179L112.98,117.02420843564538L113.344,122.27065328451295L114.35199999999999,121.66654278681818L114.38,122.79458361405584L114.71600000000001,117.48646171276377L114.91199999999999,123.07391573832575L114.94,124.80330782670232L114.968,121.80775077526377L115.136,122.6764233662531L115.248,132.49200164354755L115.36,123.59200297869158L115.388,120.28400296431313L115.416,124.56244270618136L115.556,131.8137163749107L115.612,130.01274644411518L116.08800000000001,120.88876269413865L116.872,130.49626207351676L117.012,117.77277308243963L117.348,130.66132934276865L117.404,135.1454133620628L117.6,127.0515986956082L117.74,124.39039619152354L118.104,132.83008927565345L118.18799999999999,120.83649950761053L118.244,129.14050307640656L118.44,125.79468529040987L118.77600000000001,119.52634906768789L118.832,124.84778022766105L119.448,132.3344005437997L119.532,122.65564793806801L120.372,116.64570610339815L120.596,134.55087903829713L121.548,124.36832229907687L121.996,126.51354756722075L122.24799999999999,129.16517389737635L122.444,121.18740947429941L122.5,127.33969545364371L122.584,137.8213858971228L122.64,129.99684025691099L122.78,117.61143889793973L122.80799999999999,126.58334002128007L123.03200000000001,125.71353127406184L123.34,132.886410162999L123.732,127.51060581207267L123.84400000000001,122.16710075965287L123.95599999999999,127.46110186210038L124.18,129.95382862824653L124.32000000000001,122.6605171790489L124.93599999999999,116.81061106461733L125.132,122.92621542857233L125.52399999999999,124.67589602103592L125.552,131.43813558725202L125.58,118.2762525998628L125.608,118.43466523977418L125.776,121.3945145240196L125.83200000000001,124.82229786652776L126.028,130.60354768312885L126.42,126.9975501207204L126.756,125.9016462839566L127.26,120.9442720413207L127.428,138.3010061337397L127.652,136.2338510293226L127.876,128.522921011998L127.96000000000001,129.16046696442814L128.156,123.25959612773005L128.464,118.78200442974375L128.492,130.65029239654532L128.828,127.53170585632316L129.192,128.77660846710197L129.22,130.9611122791583L129.248,123.52951438610361L129.276,137.70939335456254L129.668,130.08156504997834L130.34,127.27493454859797L130.424,121.87299860440758L130.48000000000002,132.7747422365041L130.536,134.3341978146479L130.62,134.93798369627723L130.732,129.76652515851526L130.816,112.72921327444215L130.844,125.29753578626183L131.348,139.357144502493L131.62800000000001,134.51273665061356L131.964,132.3707575431236L132.10399999999998,130.4170557535611L132.524,130.78111267089835L132.888,130.37144719637348L132.916,126.86121137325571L132.972,135.19329423170814L133,134.31082545793964L133.084,134.8157657476571L133.112,133.13652684138364L133.14,136.2392071944016L133.336,129.9424670659578L133.392,136.55213708143958L133.868,124.10651944233811L133.924,130.17635294107282L133.952,136.1431208390455L134.064,128.37473377814652L134.148,131.7765478354233L134.792,133.61111552898691L135.072,131.5876212853651L135.772,131.9213266005882L135.828,139.92733262135425L136.108,139.7724907581622L136.35999999999999,126.29735326766959L136.44400000000002,128.57891728327814L137.284,143.4555846361013L137.536,134.41356644263627L137.648,143.36047212894138L137.816,141.7688795603238L138.15200000000002,134.63673998759336L138.23600000000002,150.86559556080738L138.712,131.36136388778678L138.824,143.6485688869769L139.076,139.47287012980527L139.328,132.3055097139798L139.49599999999998,134.349617077754L139.636,139.8625717163085L140.252,137.74704881814802L140.364,133.7526481334979L140.42,130.43490963715766L140.672,133.87129530539872L140.812,143.69450206022987L140.98,141.21816840538605L141.148,140.42350827730613L141.344,139.72769374113807L142.38,135.85258946051957L143.08,136.59628486633292L143.24800000000002,146.3785899969247L143.416,140.0402990121107L143.5,137.56737382595347L144.116,134.71627092361442L144.39600000000002,131.7470077734726L144.704,138.40244865417472L144.984,138.48084343396692L145.012,139.73791914719794L145.096,136.43300298544068L145.404,130.22812920350287L145.824,140.19157009858344L146.216,138.33979775355405L146.38400000000001,134.50186201242292L146.44,142.5266957649817L146.63600000000002,148.7034902572631L146.91600000000003,140.70576194616456L147,138.6428268505976L147.084,138.89992277438816L147.112,137.636517047882L147.22400000000002,143.84333852621216L147.868,144.59011778464676L147.89600000000002,140.9277993348928L148.372,139.47920014308042L148.93200000000002,136.8574384909409L149.072,144.04622356708225L149.21200000000002,143.0798415404099L149.38,137.84037593694825L150.55599999999998,151.04932825381934L150.64000000000001,143.61659420453577L151.088,140.2745095032911L151.312,149.46341646634608L151.42399999999998,144.0562866651094L151.508,142.78070783615104L151.844,147.28491805149952L151.9,142.67066298998313L152.208,153.1213525992173L152.432,154.49042085500858L152.74,136.76378675607526L153.076,139.57690957876343L153.72,142.17578579829282L153.888,142.4442432843721L154,142.96655053358802L154.42,137.74510112175568L154.58800000000002,148.6125977589533L154.728,149.0456355901864L155.00799999999998,142.30725530477662L155.12,146.12100714903602L155.232,144.1882430956913L155.26,146.9669566154479L155.764,141.6067338356604L155.82,151.53820004829987L155.932,140.37108278274528L156.1,145.41155873812156L156.324,138.212710563953L156.604,146.02102540089527L156.99599999999998,148.9466276902418L157.08,154.62886960689832L157.16400000000002,140.1646269651559L158.2,144.41174125671378L158.34,143.3974783603961L158.452,133.1670407515305L158.48,139.15182484113245L158.56400000000002,138.2432244740999L158.70399999999998,145.3143362265366L159.012,139.11352014541617L159.236,139.55613415057834L159.348,143.14200551693247L159.404,137.74542573782105L159.572,144.46854906815742L159.796,143.31681126814613L159.82399999999998,140.6186025326068L159.99200000000002,146.61150202384354L160.076,142.2256143643305L160.46800000000002,142.77957167992219L160.664,152.3955110770005L161.28,139.87377097056455L161.476,143.54290635769175L161.644,149.15405735602738L161.756,140.8276552787193L161.784,147.66536808013907L162.148,143.78101224165687L162.54,143.1536916952866L162.624,136.88243392797608L162.708,140.61811560850867L162.764,144.5561954058133L162.82,146.99925591395444L163.26799999999997,142.40967167340784L163.324,151.01589279908393L163.38,153.5034257081838L163.40800000000002,136.61219105353715L163.436,150.6005465434147L163.632,136.33220969713642L163.66,140.38114588077244L164.16400000000002,137.61704008395847L164.72400000000002,153.08369713563178L165.088,139.46686473259552L165.452,142.50803034122166L165.50799999999998,150.38840994468094L166.04,145.99213457107535L166.15200000000002,154.4561738601097L166.34799999999998,143.76121066166797L166.46,137.54416377727793L166.6,142.4771918150094L167.468,145.11843043107245L167.748,136.92349786024818L167.77599999999998,144.23628627336936L168.67200000000003,140.64100104111884L169.344,146.00771614221418L169.68,139.82053393584022L169.736,141.2613423420832L169.876,154.08513769736652L170.24,148.29658401929407L170.268,144.64075789084794L170.492,141.30500320287842L170.548,149.93070129247806L170.68800000000002,151.60864173448996L171.724,142.71740770339957L171.836,138.06371178993805L171.948,148.6452216735252L172.144,145.9001059165367L172.256,140.49330073136542L172.284,155.22372854672938L172.34,139.82653933305L172.36800000000002,138.95267288501438L172.704,151.74660356228162L173.264,147.96287870407096L173.572,144.43560053752012L173.628,152.9145721655625L173.768,144.6388101944556L173.824,147.82767611283515L173.964,147.89909164722144L174.132,148.84339978144712L174.328,143.63477270419773L174.692,147.1704908884488L175.112,139.95703499133762L175.14,152.9436253034151L175.252,141.7268417798555L175.364,151.5257023297823L175.448,146.072963971358L176.036,145.7681494859548L176.288,150.35627295420713L176.344,148.20293228442847L176.93200000000002,151.29587415548465L176.96,143.69222974777213L177.04399999999998,146.41705700067365L177.1,143.32005742880006L177.21200000000002,145.77269411087028L177.24,143.09022925450245L177.38,142.48725491303657L178.164,157.22807044249308L178.332,152.85078510871296L178.388,151.74465586588926L179.03199999999998,142.75068085010227L179.284,145.43038646991428L179.31199999999998,145.3802332878112L179.704,149.83526416925275L179.89999999999998,154.49204393533552L180.012,144.35152497658356L180.488,142.75668624731202L180.684,143.1660271057715L180.73999999999998,141.39508416102476L180.824,139.09095932887143L180.88,153.26953983306876L181.91600000000003,146.6829175582298L182.14,146.0166430840125L182.28,157.22514889790457L182.308,140.8778084608224L182.50400000000002,152.9267452680147L182.616,145.98385686140784L182.672,153.68650916906498L183.28799999999998,143.86103010177604L183.484,155.53357458114618L183.90400000000002,144.66672717607932L184.24,134.94674833004282L184.94,146.55274651600757L186.032,149.36018855755137L186.312,159.80341199728153L186.70399999999998,157.04239005308878L187.26399999999998,145.8087264941288L187.796,149.42283945817206L187.992,153.7480239134568L188.076,141.4380957896892L188.272,147.9817064358637L188.46800000000002,141.80280193915726L188.552,151.8423653015723L188.74800000000002,139.02376380333527L189.02800000000002,156.46781961734473L189.084,148.59799003601066L189.168,151.13048227016736L189.196,151.09802066362815L189.224,149.15227196766773L189.25199999999998,156.241237603701L189.448,143.9688026354862L189.644,149.1995036051823L189.89600000000002,150.7193560233482L190.12,143.0585791881267L191.324,147.6316080093383L191.8,138.64022992207447L192.27599999999998,153.00838620846082L192.64,152.1096866314227L192.668,151.68281650543204L192.72400000000002,156.10360039197474L193.816,145.9577252681438L194.572,142.2869668006896L194.71200000000002,149.8286095399122L194.796,150.95665036714988L195.02,151.8581091807438L195.18800000000002,146.6999599016629L195.496,137.29242401856635L195.74800000000002,155.1537737846374L195.944,138.42663255104645L196.112,145.76068331645078L196.28,146.10997020281272L196.308,153.65485910268924L197.26,154.3789152365464L197.288,148.51196677868174L197.512,156.72718785359305L198.156,147.15117623255796L198.212,147.71276202568635L198.23999999999998,149.03119017527646L198.54799999999997,156.32190469595096L198.632,156.14693663670462L199.024,144.90061305119434L199.13600000000002,143.79058841558594L199.192,141.14383132641123L199.752,155.1894815518305L199.892,156.4769088671757L199.94799999999998,143.6772974087641L200.00400000000002,155.13348528055036L200.732,155.8091736206641L201.544,144.972353201646L201.768,152.31046166786774L201.93599999999998,153.44028788346503L202.21599999999998,157.39346232781037L202.328,159.16554142878599L202.44,151.72501659393302L202.55200000000002,144.5346084374647L202.636,150.82599240082953L202.83200000000002,155.6841964354881L203.05599999999998,149.71872700177698L203.84,143.84252698604868L203.896,149.7554086171663L204.09199999999998,144.17850461372956L204.316,161.8160316027127L204.344,151.5825101412259L204.428,150.7649645805358L204.82000000000002,155.8788037666907L205.212,159.64435012523938L205.32399999999998,154.79734534483683L205.352,152.11082278765159L205.38000000000002,152.24375306642966L205.744,155.08527979483966L206.052,155.2680386396554L206.07999999999998,153.68228916021488L206.22,150.72519911252527L206.276,153.23496822210453L206.35999999999999,146.7241437985346L206.668,160.8928235127375L207.39600000000002,156.29057924564063L207.9,157.78202775808475L208.404,150.87955405161924L208.432,150.94009494781486L208.6,152.92349910736075L208.88,155.21025698001563L209.272,145.9241275053757L209.77599999999998,146.41381084001975L209.86,154.85123161169193L209.888,151.9657194064213L210.644,152.02642261064963L210.812,163.43245730033283L210.896,152.56771989969099L211.148,142.4729718061593L211.316,153.64154984400815L211.456,143.67453817220826L211.48399999999998,160.18451125805188L211.82,165.82828617095942L211.96,154.63406346394459L212.40800000000002,162.66344184141886L212.548,153.90189192845264L212.68800000000002,163.76940877620984L212.8,151.5088222943819L213.24800000000002,159.00355801215534L213.276,151.04640670923078L213.64000000000001,151.3236288290757L214.20000000000002,155.93983158698444L214.536,155.26998633604777L214.87199999999999,150.4734593538137L215.544,152.7163940576406L215.852,137.60243236101581L216.04799999999997,145.79979955233054L216.188,150.18162951102616L216.244,153.0254285518939L216.29999999999998,155.24271858655482L216.468,164.40695472863996L216.57999999999998,145.0168256026047L217.028,157.02729540604804L217.336,154.59170106741092L217.392,158.96882409315836L217.75599999999997,149.55008895580576L217.84,157.40157772944517L218.00799999999998,160.52795505523676L218.484,167.9739983632014L218.59599999999998,156.34268012413605L219.016,158.0639568108778L219.296,150.73006835350617L219.38,158.1835778309748L219.46400000000003,151.66528723790088L219.60399999999998,157.72375917434687L219.66,153.29664527452903L219.828,152.6337792689983L220.08,152.59076764033384L220.27599999999998,143.72858674709605L220.388,160.77531249706556L220.528,167.04819334470304L221.004,156.68336468476508L221.62,161.05983847838175L221.676,161.2518488810612L221.76000000000002,165.92615791467514L222.068,164.73384310648984L222.26399999999998,165.79777226081256L222.88000000000002,148.66534786957953L223.328,159.3504102780268L223.496,158.74840978475711L223.776,144.9551485501802L223.916,159.64451243327207L223.972,149.2842283982496L224.056,167.41922950744623L224.364,153.02705163222086L224.53199999999998,158.75246748557453L224.81199999999998,151.0582551956176L224.84,164.10003023881174L224.89600000000002,159.5196975561288L225.26,160.47845110526447L225.512,160.82416721490705L225.54,155.1526376284085L226.268,145.07752880683304L226.464,160.9385943779578L227.108,157.13782717631406L227.304,152.45864890171924L227.388,164.95230971849875L227.55599999999998,158.96833716906028L228.62,158.51679622209983L228.98399999999998,157.5497649632967L229.012,151.28288951286896L229.068,164.66210295603818L229.236,161.95545420279865L229.32,150.40545228811405L229.82399999999998,163.37402640856223L230.048,154.85934701332673L230.328,159.8697959826542L231,162.47905991627616L231.112,156.32466393250678L231.336,158.68819350462687L231.448,147.7096781730651L231.70000000000002,162.30165723653934L232.232,151.27818257992078L232.484,160.56041666177595L232.652,168.98907279968256L233.23999999999998,159.10564976472114L233.38,161.32618596003599L233.492,159.21179921810437L233.54799999999997,168.61430355218735L233.912,160.4109309636629L233.968,158.31374887319706L234.052,155.27940020194416L234.192,155.32906645994913L234.304,148.69797178415143L234.584,153.7803232119633L234.808,162.38832972599906L235.704,156.10538578033442L235.9,162.44984447039084L236.208,162.5624862450819L236.236,161.92867337740378L236.32,161.0213714746328L236.40400000000002,160.40103017366843L236.908,155.5446115273695L237.02,154.91940098542426L237.132,150.40772460057178L237.188,150.91428797061621L237.524,169.74867439270014L238.028,160.92447357911323L238.196,160.5672335991492L238.39200000000002,158.8720885056715L238.532,157.81010704774116L238.756,156.2173783228947L238.92399999999998,158.99771492297828L239.23200000000003,156.1138257980346L239.456,160.63816220943738L239.512,163.83011198043818L239.68,158.9379855669461L239.848,161.91520181069L240.184,160.0139255156883L240.436,158.3648759034963L240.632,154.14064704454856L240.828,153.2107843252328L240.884,158.39214365298926L240.94,164.3743308140681L241.024,161.31206516119144L241.892,154.3868683301485L241.92,160.46627800281226L242.06,151.8795338410597L242.08800000000002,155.79927283066962L242.452,161.38623993213355L242.50799999999998,166.75376657339237L242.536,149.3798278295076L243.208,169.51933314250059L244.21599999999998,162.39823051599348L244.38400000000001,159.16278219223017L244.412,161.5490348889277L244.468,170.58991692616385L245.196,159.2147207626929L245.22400000000002,158.89400009008548L245.28,158.08408300693213L245.308,170.77754501196048L245.33599999999998,160.73002855594336L245.42,163.81550425749552L245.812,171.2891399310185L246.008,162.32584113341105L246.26,165.27854886421784L246.288,164.70186842404874L246.68,168.69675603279694L247.016,167.8410680844233L247.49200000000002,158.63560570203333L247.60399999999998,162.9098254350515L247.828,161.44499543996952L247.96800000000002,159.78961581450235L247.996,160.27410529210013L248.164,163.35471175267142L248.332,162.99763408074006L248.724,164.04549473982584L249.088,153.89799653566794L249.256,163.87701900188733L249.61999999999998,161.59253344169025L249.67600000000002,153.24795286472022L249.704,165.1159162154564L249.87199999999999,164.51164340972895L249.95600000000002,152.18240063007056L250.012,161.82366008024943L250.04,152.9061321478623L250.23600000000002,161.5074840325575L250.88,168.64205822577838L251.63600000000002,168.28092285302964L251.832,159.4737643828758L252.56,176.85874007298392L252.75599999999997,158.05973680202771L252.84,166.58415467922498L252.868,161.3008659069354L252.924,170.73940262427692L253.31599999999997,166.20581465501047L253.54,163.73986871425916L253.736,163.66829087184018L253.84799999999998,163.44852579556974L254.18400000000003,161.07363466116092L254.21200000000002,175.4538017419668L254.408,153.94555278924787L254.71599999999998,161.56753800465506L254.856,160.00094087307264L255.444,164.01173466902506L255.668,168.6216074136587L256.004,162.2044347249544L256.06,170.20605842883765L256.2,160.5798936256995L256.592,163.79878653012784L256.62,166.03620276084308L256.676,158.5875625243553L257.012,165.60900801878702L257.18,161.4953109301053L257.20799999999997,160.78196712640607L257.404,155.73240192119886L257.432,158.90179087565488L257.628,167.3422954999483L257.656,160.78927098787742L257.768,165.55447251980115L258.07599999999996,160.9343743691077L258.104,166.25093628809995L258.44,158.232594856849L258.468,166.5424415148221L259.168,163.1649736624497L259.784,153.5120280339167L259.952,165.6013795412503L260.036,169.8697561850914L260.06399999999996,169.98239795978247L260.176,173.9409285692068L260.316,160.9595321141756L260.456,170.14892600132865L261.604,166.66287407508258L261.8,160.0564502202547L261.884,160.15269888364347L262.192,163.89195134089536L262.276,157.41894468894367L262.444,161.01569069348844L262.584,160.44209410594053L262.696,165.9355717805715L262.808,170.0172941868121L262.836,169.03597982113172L263.06,160.36678317876957L263.144,168.65991210937494L263.536,159.01605573067292L263.62,161.31368824151838L263.676,161.17296717717093L264.236,162.971502487476L264.32,158.18406475507288" style="fill: none;" fill="none"></path></g></g></g></g></g></g><g transform="translate(50, 177)" clip-path="url(#clip_1)"><clipPath id="clip_1"><rect width="280" height="23"></rect></clipPath><g><g><line x1="0" y1="0" x2="0" y2="5" style="visibility: inherit;" fill="rgb(0, 0, 0)" stroke="rgb(204, 204, 204)" stroke-width="1px"></line><line x1="28" y1="0" x2="28" y2="5" style="visibility: inherit;" fill="rgb(0, 0, 0)" stroke="rgb(204, 204, 204)" stroke-width="1px"></line><line x1="56" y1="0" x2="56" y2="5" style="visibility: inherit;" fill="rgb(0, 0, 0)" stroke="rgb(204, 204, 204)" stroke-width="1px"></line><line x1="84" y1="0" x2="84" y2="5" style="visibility: inherit;" fill="rgb(0, 0, 0)" stroke="rgb(204, 204, 204)" stroke-width="1px"></line><line x1="112" y1="0" x2="112" y2="5" style="visibility: inherit;" fill="rgb(0, 0, 0)" stroke="rgb(204, 204, 204)" stroke-width="1px"></line><line x1="140" y1="0" x2="140" y2="5" style="visibility: inherit;" fill="rgb(0, 0, 0)" stroke="rgb(204, 204, 204)" stroke-width="1px"></line><line x1="168" y1="0" x2="168" y2="5" style="visibility: inherit;" fill="rgb(0, 0, 0)" stroke="rgb(204, 204, 204)" stroke-width="1px"></line><line x1="196" y1="0" x2="196" y2="5" style="visibility: inherit;" fill="rgb(0, 0, 0)" stroke="rgb(204, 204, 204)" stroke-width="1px"></line><line x1="224" y1="0" x2="224" y2="5" style="visibility: inherit;" fill="rgb(0, 0, 0)" stroke="rgb(204, 204, 204)" stroke-width="1px"></line><line x1="252" y1="0" x2="252" y2="5" style="visibility: inherit;" fill="rgb(0, 0, 0)" stroke="rgb(204, 204, 204)" stroke-width="1px"></line><line x1="280" y1="0" x2="280" y2="5" style="visibility: inherit;" fill="rgb(0, 0, 0)" stroke="rgb(204, 204, 204)" stroke-width="1px"></line></g><g transform="translate(0, 8)"><text x="0" y="0" dx="0em" dy="0.95em" style="text-anchor: middle; visibility: hidden; font-family: Roboto, sans-serif; font-size: 12px; font-weight: 200;" fill="rgb(33, 33, 33)" stroke="none" stroke-width="1px">-1k</text><text x="28" y="0" dx="0em" dy="0.95em" style="text-anchor: middle; visibility: inherit; font-family: Roboto, sans-serif; font-size: 12px; font-weight: 200;" fill="rgb(33, 33, 33)" stroke="none" stroke-width="1px">0</text><text x="56" y="0" dx="0em" dy="0.95em" style="text-anchor: middle; visibility: inherit; font-family: Roboto, sans-serif; font-size: 12px; font-weight: 200;" fill="rgb(33, 33, 33)" stroke="none" stroke-width="1px">1k</text><text x="84" y="0" dx="0em" dy="0.95em" style="text-anchor: middle; visibility: inherit; font-family: Roboto, sans-serif; font-size: 12px; font-weight: 200;" fill="rgb(33, 33, 33)" stroke="none" stroke-width="1px">2k</text><text x="112" y="0" dx="0em" dy="0.95em" style="text-anchor: middle; visibility: inherit; font-family: Roboto, sans-serif; font-size: 12px; font-weight: 200;" fill="rgb(33, 33, 33)" stroke="none" stroke-width="1px">3k</text><text x="140" y="0" dx="0em" dy="0.95em" style="text-anchor: middle; visibility: inherit; font-family: Roboto, sans-serif; font-size: 12px; font-weight: 200;" fill="rgb(33, 33, 33)" stroke="none" stroke-width="1px">4k</text><text x="168" y="0" dx="0em" dy="0.95em" style="text-anchor: middle; visibility: inherit; font-family: Roboto, sans-serif; font-size: 12px; font-weight: 200;" fill="rgb(33, 33, 33)" stroke="none" stroke-width="1px">5k</text><text x="196" y="0" dx="0em" dy="0.95em" style="text-anchor: middle; visibility: inherit; font-family: Roboto, sans-serif; font-size: 12px; font-weight: 200;" fill="rgb(33, 33, 33)" stroke="none" stroke-width="1px">6k</text><text x="224" y="0" dx="0em" dy="0.95em" style="text-anchor: middle; visibility: inherit; font-family: Roboto, sans-serif; font-size: 12px; font-weight: 200;" fill="rgb(33, 33, 33)" stroke="none" stroke-width="1px">7k</text><text x="252" y="0" dx="0em" dy="0.95em" style="text-anchor: middle; visibility: inherit; font-family: Roboto, sans-serif; font-size: 12px; font-weight: 200;" fill="rgb(33, 33, 33)" stroke="none" stroke-width="1px">8k</text><text x="280" y="0" dx="0em" dy="0.95em" style="text-anchor: middle; visibility: hidden; font-family: Roboto, sans-serif; font-size: 12px; font-weight: 200;" fill="rgb(33, 33, 33)" stroke="none" stroke-width="1px">9k</text></g><line x1="0" y1="0" x2="280" y2="0" fill="rgb(0, 0, 0)" stroke="rgb(204, 204, 204)" stroke-width="1px"></line></g></g></g></g></svg>